<svg xmlns="http://www.w3.org/2000/svg" width="256" height="256"><path fill-opacity=".016" d="M0 128.004v128.004l128.25-.254 128.25-.254.254-127.75L257.008 0H0v128.004m.485.496c0 70.4.119 99.053.265 63.672.146-35.38.146-92.98 0-128C.604 29.153.485 58.1.485 128.5" fill="#1976D2" fill-rule="evenodd"/><path fill-opacity=".326" d="M32 .571c0 .315.675 1.247 1.5 2.072 1.316 1.316 1.514 16.957 1.616 127.678.064 69.399.322 125.392.573 124.429.427-1.634 3.438-1.75 45.384-1.75 39.268 0 44.927.189 44.927 1.5 0 .825.45 1.5 1 1.5s1-.675 1-1.5c0-1.311 5.611-1.5 44.5-1.5s44.5.189 44.5 1.5c0 .825.45 1.5 1 1.5s1-.675 1-1.5c0-.933.944-1.5 2.5-1.5 1.375 0 2.5-.45 2.5-1s-1.125-1-2.5-1H219V127h2.5c1.375 0 2.5-.45 2.5-1s-1.125-1-2.5-1H219V2h2.5c1.375 0 2.5-.45 2.5-1 0-.66-32.667-1-96-1-52.8 0-96 .257-96 .571m4 62.679V125h90V2.04l-45-.27-45.001-.27L36 63.25m92 0V125h89V1.5h-89v61.75M73.098 53.149c-1.941 5.568-1.745 5.746 6.709 6.061l7.806.29-1.056 5.5-1.057 5.5-4.25.307c-6.484.47-4.941 3.193 1.809 3.193 3.432 0 5.418-2.653 6.363-8.5.356-2.2.892-5.237 1.192-6.75l.545-2.75H75.05l.911-2.397c.879-2.312.51-3.603-1.03-3.603-.404 0-1.229 1.417-1.833 3.149m92.877-.584c-1.908 5.018-1.479 5.435 5.582 5.435h6.556l-1.772 3c-2.098 3.552-2.33 3.587-6.567 1.004-3.809-2.323-4.776-2.476-4.768-.754.004.688 1.466 2.081 3.249 3.096l3.242 1.846-2.999 2.399c-1.649 1.32-3.56 2.401-4.248 2.404-.687.003-1.25.68-1.25 1.505 0 2.317 2.295 1.794 6.962-1.587l4.262-3.088 3.39 3.286c2.366 2.293 3.707 2.968 4.439 2.236.733-.733-.021-1.99-2.496-4.163l-3.545-3.113 2.494-3.675c4.197-6.185 3.564-7.396-3.867-7.396-6.247 0-6.353-.045-5.884-2.5.635-3.318-1.513-3.268-2.78.065M36 189v62h90V127H36v62m92 0v62h89V127h-89v62m-48.65-9c-.543 2.714-.969 3-4.475 3-2.131 0-3.875.45-3.875 1s1.35 1 3 1c3.658 0 3.741 1.161.488 6.852-1.368 2.394-2.488 5.009-2.488 5.811 0 1.465 1.859 1.428 12.75-.252 2.481-.383 3.25-.136 3.25 1.044 0 1.75 1.558 2.069 2.518.515.971-1.57-4.51-10.378-5.711-9.177-.656.656-.634 1.661.065 2.969.967 1.805.658 2.031-3.57 2.61-2.546.349-4.811.453-5.033.231-.222-.222.759-2.699 2.181-5.504L81.034 185h5.483c3.016 0 5.483-.45 5.483-1s-2.306-1-5.125-1H81.75l.6-3c.453-2.267.233-3-.9-3-.867 0-1.753 1.267-2.1 3m83.65-1.5c0 1.133 1.222 1.5 5 1.5 2.75 0 5 .247 5 .55 0 .302-.687 1.877-1.526 3.5l-1.525 2.95H178.95l-.616 3.25c-1.005 5.306-2.154 6.75-5.369 6.75-3.881 0-3.814 1.655.102 2.515 3.944.866 6.685-1.483 7.471-6.402.318-1.987.785-4.625 1.039-5.863.417-2.033.078-2.25-3.507-2.25h-3.968l1.449-3.468c.797-1.907 1.449-3.707 1.449-4 0-.293-3.15-.532-7-.532-5.556 0-7 .31-7 1.5" fill="#1976D2" fill-rule="evenodd"/><path fill-opacity=".137" d="M35.116 128.25c.064 70.537.322 127.463.573 126.5.427-1.634 3.434-1.75 45.311-1.75s44.884.116 45.311 1.75c.435 1.667.463 1.667.573 0 .109-1.639 2.99-1.75 45.543-1.75 42.422 0 45.457.116 45.884 1.75.435 1.667.463 1.667.573 0 .077-1.169.946-1.75 2.616-1.75 1.375 0 2.5-.45 2.5-1s-1.125-1-2.5-1H219V127h2.5c1.375 0 2.5-.45 2.5-1s-1.125-1-2.5-1H219V1.133l2.75-.417c1.512-.229-39.887-.484-92-.566L35 0l.116 128.25M36 63v62h90V1H36v62m91.633-59.76c-.333 1.243-.612 29.148-.619 62.01L127 125h91.015l-.257-61.75L217.5 1.5l-44.631-.26-44.63-.26-.606 2.26M73.449 53.468C72.652 55.375 72 57.4 72 57.968 72 58.591 75.171 59 80.012 59h8.012l-.63 4.25c-.347 2.338-1.273 5.279-2.059 6.537-1.201 1.921-1.98 2.183-4.882 1.638-4.29-.805-4.736 1.134-.475 2.07 6.255 1.374 8.624-1.407 9.667-11.35l.592-5.645-7.679.331-7.679.331.672-3.581c.854-4.553-.223-4.611-2.102-.113m92.649-.319c-.604 1.732-1.098 3.307-1.098 3.5 0 .193 2.925.351 6.5.351 7.238 0 7.963.871 4.445 5.343l-2.055 2.613-3.897-2.46c-2.143-1.353-4.146-2.057-4.451-1.564-.305.494 1.023 1.872 2.952 3.064 1.928 1.192 3.506 2.336 3.506 2.543 0 .207-2.025 1.563-4.5 3.014-2.475 1.451-4.248 3.046-3.94 3.545.601.971 3.146-.125 7.701-3.315l2.76-1.934 3.915 3.1c4.954 3.924 6.343 2.251 1.468-1.767l-3.614-2.979 2.605-3.834c4.281-6.3 3.713-7.369-3.914-7.369-6.454 0-6.513-.025-5.892-2.5.914-3.642-1.186-3.094-2.491.649M36 189v62h90V127H36v62m91 0v62h91V127h-91v62m-47.5-9c-.595 2.711-1.036 3-4.579 3-4.911 0-5.182 1.77-.336 2.19l3.586.31-3.084 5.848c-1.696 3.217-2.881 6.176-2.634 6.575.247.4 3.727.336 7.733-.143 4.921-.588 7.397-.531 7.632.175.192.575.98 1.045 1.752 1.045 1.089 0 .914-1.009-.782-4.5-1.203-2.475-2.788-4.5-3.522-4.5-1.045 0-1.093.455-.22 2.086 1.436 2.682 1.196 2.861-4.779 3.569l-5.005.593 2.619-5.612 2.619-5.612 5.25-.012c2.888-.007 5.25-.462 5.25-1.012s-2.172-1-4.827-1c-4.794 0-4.824-.02-4.386-3 .247-1.683-.014-3-.594-3-.569 0-1.331 1.35-1.693 3m83.5-2c0 .55 2.452 1 5.449 1h5.449l-1.449 3.468c-1.942 4.648-2.009 4.532 2.63 4.532 4.07 0 4.078.008 3.426 3.25-1.317 6.544-1.474 6.75-5.131 6.75-2.074 0-3.241.406-2.874 1 .34.55 2.151 1 4.024 1 4.063 0 5.313-1.831 6.166-9.029l.589-4.971h-3.64c-4.024 0-4.218-.363-2.139-4 .786-1.375 1.445-2.838 1.465-3.25.019-.412-3.115-.75-6.965-.75-4 0-7 .429-7 1" fill="#1976D2" fill-rule="evenodd"/><path fill-opacity=".746" d="M80.25.75l45.75.27v125.02l-45.5-.27c-25.025-.149-45.5.068-45.5.48s20.475.75 45.5.75H126v125.04l-45.5-.27c-25.025-.149-45.5.068-45.5.48s20.442.75 45.427.75c42.422 0 45.457.116 45.884 1.75.435 1.667.463 1.667.573 0 .109-1.639 2.99-1.75 45.543-1.75 42.422 0 45.457.116 45.884 1.75.409 1.566.469 1.573.573.066.071-1.028 1.187-1.845 2.866-2.1l2.75-.416-2.75-.15L219 252V127.133l2.75-.417 2.75-.416-2.75-.15L219 126V1.133l2.75-.417c1.512-.229-40-.376-92.25-.327-52.25.05-74.413.212-49.25.361M127 63.5V126h91V1h-91v62.5m-53.739-9L72.187 58H88.258l-.687 5.173c-.998 7.523-2.052 9.025-6.09 8.677-1.856-.16-3.698.034-4.094.43-.396.396 1.325.72 3.824.72 5.389 0 6.203-.827 7.672-7.799C90.681 56.668 90.945 57 82.375 57H74.75l.6-3c.832-4.16-.777-3.775-2.089.5m92.889-.5l-1.046 3h6.948c3.821 0 6.948.415 6.948.923s-1.172 2.316-2.604 4.018l-2.603 3.094-3.398-2.1c-1.87-1.155-3.922-1.926-4.561-1.713-.639.213.591 1.421 2.734 2.686 4.304 2.539 4.331 2.464-2.622 7.29-1.345.933-1.946 1.721-1.336 1.75.611.028 2.769-1.073 4.795-2.448 4.563-3.097 4.735-3.094 8.561.124 4.195 3.531 5.085 2.287.984-1.377l-3.24-2.896 2.645-4.513c1.455-2.483 2.645-4.812 2.645-5.176 0-.364-2.977-.662-6.617-.662-6.518 0-6.609-.037-6.138-2.5.667-3.488-.829-3.131-2.095.5M127 189.5V252h91V127h-91v62.5M79.85 180c-.921 2.642-1.511 3-4.948 3-2.146 0-3.902.45-3.902 1s1.575 1 3.5 1 3.492.338 3.482.75c-.01.412-1.36 3.184-3 6.16-1.64 2.975-2.982 5.616-2.982 5.867 0 .252 3.393.14 7.54-.249 5.354-.501 7.964-.355 9 .505 2.226 1.847 1.885-.609-.654-4.718-2.22-3.591-3.838-3.962-1.957-.448.991 1.852.746 2.093-2.669 2.631-6.83 1.075-8.26 1.228-8.26.885 0-.186 1.219-2.824 2.708-5.861L80.417 185h5.291c2.911 0 5.292-.45 5.292-1s-2.286-1-5.079-1h-5.08l.659-3c.362-1.65.375-3 .027-3-.347 0-1.102 1.35-1.677 3m83.577-1.882c-.3.485 1.957.882 5.014.882 5.996 0 6.22.22 4.059 4-2.105 3.683-1.897 4 2.628 4h4.128l-.672 4.2c-.857 5.36-2.291 7.09-5.26 6.345-1.293-.324-2.324-.131-2.324.436 0 .56 1.586 1.019 3.525 1.019 3.965 0 4.797-1.294 6.003-9.341l.699-4.659h-3.73c-3.981 0-3.859.375-1.911-5.882.529-1.702-.001-1.883-5.514-1.883-3.355 0-6.345.397-6.645.883" fill="#1976D2" fill-rule="evenodd"/></svg>